<svg width="24" height="24" viewBox="0 0 24 24" fill="none" xmlns="http://www.w3.org/2000/svg">
<path fill-rule="evenodd" clip-rule="evenodd" d="M11.6154 3.53221C8.34913 3.5284 5.40233 5.49304 4.14974 8.50961C2.89714 11.5262 3.58556 15.0003 5.89383 17.3113C8.2021 19.6222 11.6754 20.3147 14.6934 19.0656C17.7115 17.8165 19.6795 14.872 19.6796 11.6057C19.6796 7.15053 16.0706 3.5374 11.6154 3.53221ZM11.6154 15.2003C9.63526 15.1796 8.04485 13.5612 8.05864 11.581C8.06982 9.9747 9.13309 8.6212 10.5912 8.17091V8.93285C9.52837 9.31736 8.76889 10.3354 8.76889 11.5309C8.76889 13.0563 10.0055 14.293 11.5309 14.293C13.0564 14.293 14.293 13.0563 14.293 11.5309C14.293 10.3441 13.5445 9.33211 12.4938 8.9413V8.11034C14.0738 8.48894 15.2475 9.91067 15.2476 11.6058C15.2476 12.5657 14.8638 13.4857 14.1815 14.1609C13.4992 14.8361 12.5753 15.2103 11.6154 15.2003ZM11.6059 6.92068C11.3007 6.92068 11.0532 7.11944 11.0532 7.36462V10.3454C11.0532 10.5905 11.3007 10.7893 11.6059 10.7893C11.9111 10.7893 12.1586 10.5905 12.1586 10.3454V7.36462C12.1586 7.11944 11.9111 6.92068 11.6059 6.92068Z" fill="#003791"/>
<path fill-rule="evenodd" clip-rule="evenodd" d="M0 11.6059C0 5.19613 5.19613 0 11.6059 0C18.0156 0 23.2118 5.19613 23.2118 11.6059C23.2118 18.0156 18.0156 23.2118 11.6059 23.2118C5.19613 23.2118 0 18.0156 0 11.6059ZM1.16059 11.6059C1.16059 17.3746 5.8371 22.0512 11.6059 22.0512C14.3761 22.0512 17.0329 20.9507 18.9918 18.9918C20.9507 17.0329 22.0512 14.3761 22.0512 11.6059C22.0512 5.83708 17.3747 1.16057 11.6059 1.16057C5.8371 1.16057 1.16059 5.83708 1.16059 11.6059Z" fill="#003791"/>
</svg>
